<svg width="16" height="16" viewBox="0 0 16 16" fill="none" xmlns="http://www.w3.org/2000/svg">
<g clip-path="url(#clip0_555_3158)">
<rect width="16" height="16" rx="8" fill="white"/>
<path d="M3 4.5V6.0001H6.0002V7.25018H3.50003V8.75028H6.0002V10.0004H3V11.5005H6.0002C6.83025 11.5005 7.50029 10.8304 7.50029 10.0004V9.0503C7.50029 8.7718 7.38966 8.50471 7.19273 8.30779C6.99581 8.11086 6.72872 8.00023 6.45022 8.00023C6.72872 8.00023 6.99581 7.8896 7.19273 7.69267C7.38966 7.49574 7.50029 7.22865 7.50029 6.95016V6.0001C7.50029 5.17004 6.83025 4.5 6.0002 4.5H3ZM11.5006 6.0001V10.0004H9.50042V6.0001H11.5006ZM11.5006 4.5H9.50042C8.67037 4.5 8.00033 5.17004 8.00033 6.0001V10.0004C8.00033 10.8304 8.67037 11.5005 9.50042 11.5005H11.5006C12.3306 11.5005 13.0007 10.8304 13.0007 10.0004V6.0001C13.0007 5.17004 12.3306 4.5 11.5006 4.5Z" fill="#C19C83"/>
</g>
<defs>
<clipPath id="clip0_555_3158">
<rect width="16" height="16" fill="white"/>
</clipPath>
</defs>
</svg>
