<svg viewBox="0 0 13.3333 13.2093" fill="none" xmlns="http://www.w3.org/2000/svg" aria-hidden="true">
<path d="M11.3333 3.10696e-09C11.8435 -2.84145e-05 12.3343 0.194883 12.7055 0.544856C13.0767 0.894828 13.3001 1.3734 13.33 1.88267L13.3333 2V3.21133C13.3318 3.39139 13.2833 3.56793 13.1926 3.72345C13.1018 3.87898 12.972 4.00809 12.816 4.098L12.7447 4.13667C12.529 4.24253 12.3459 4.40472 12.2148 4.60607C12.0837 4.80742 12.0094 5.04045 11.9999 5.28053C11.9903 5.52061 12.0458 5.75881 12.1605 5.96995C12.2752 6.18109 12.4447 6.35731 12.6513 6.48L12.7447 6.53C13.0333 6.67267 13.2913 6.96733 13.3287 7.35667L13.3333 7.45533V8.66667C13.3334 9.17681 13.1384 9.66768 12.7885 10.0388C12.4385 10.41 11.9599 10.6334 11.4507 10.6633L11.3333 10.6667H2C1.48986 10.6667 0.99899 10.4718 0.627826 10.1218C0.256662 9.77184 0.0332617 9.29326 0.00333341 8.784L3.10696e-09 8.66667V7.45533C3.10696e-09 7.05133 0.234667 6.73667 0.517333 6.56867L0.588667 6.53C0.804355 6.42413 0.987428 6.26195 1.11853 6.0606C1.24963 5.85925 1.32389 5.62622 1.33345 5.38614C1.34301 5.14606 1.28752 4.90786 1.17285 4.69672C1.05818 4.48558 0.888585 4.30935 0.682 4.18667L0.588667 4.13667C0.3 3.994 0.042 3.69933 0.00466665 3.31L3.10696e-09 3.212V2C-2.84145e-05 1.48986 0.194883 0.99899 0.544856 0.627826C0.894828 0.256662 1.3734 0.0332617 1.88267 0.00333341L2 3.10696e-09H11.3333ZM5.33333 3.33333C5.15652 3.33333 4.98695 3.40357 4.86193 3.5286C4.7369 3.65362 4.66667 3.82319 4.66667 4V6.66667C4.66667 6.84348 4.7369 7.01305 4.86193 7.13807C4.98695 7.2631 5.15652 7.33333 5.33333 7.33333C5.51014 7.33333 5.67971 7.2631 5.80474 7.13807C5.92976 7.01305 6 6.84348 6 6.66667V4C6 3.82319 5.92976 3.65362 5.80474 3.5286C5.67971 3.40357 5.51014 3.33333 5.33333 3.33333Z" fill="currentColor"/>
</svg>
