<svg width="16" height="16" viewBox="0 0 16 16" fill="none" xmlns="http://www.w3.org/2000/svg">
<path fill-rule="evenodd" clip-rule="evenodd" d="M3.72933 3.32667L3.02467 5.58533C2.9069 5.78561 2.82903 6.00679 2.79533 6.23667L2.72733 6.68867C2.46331 8.4431 2.48808 10.2289 2.80067 11.9753C2.86235 12.3201 3.03484 12.6354 3.29196 12.8733C3.54908 13.1111 3.87679 13.2586 4.22533 13.2933L5.04533 13.3753C7.01067 13.57 8.98933 13.57 10.954 13.3753L11.774 13.294C12.1228 13.2594 12.4507 13.1119 12.708 12.8739C12.9652 12.6358 13.1377 12.3204 13.1993 11.9753C13.512 10.2287 13.5367 8.44333 13.2727 6.68867L13.2047 6.23667C13.1697 5.9975 13.087 5.76782 12.9613 5.56133L12.27 3.33C12.1824 3.0466 12.0159 2.79404 11.7899 2.60192C11.5639 2.40981 11.2878 2.28611 10.994 2.24533C9.00734 1.96898 6.99199 1.96898 5.00533 2.24533C4.71193 2.28585 4.43613 2.40905 4.21017 2.60054C3.98421 2.79203 3.81743 3.04389 3.72933 3.32667ZM10.856 3.23533C8.96074 2.97082 7.03793 2.97082 5.14267 3.23533C5.03709 3.24986 4.93786 3.29421 4.85661 3.36318C4.77536 3.43214 4.71548 3.52285 4.684 3.62467L4.35 4.69533C4.37489 4.69178 4.4 4.68889 4.42533 4.68667L5.07733 4.622C7.02133 4.42867 8.97867 4.42867 10.9227 4.622L11.5747 4.68667C11.5987 4.68889 11.6224 4.69156 11.646 4.69467L11.3147 3.62533C11.2833 3.5234 11.2235 3.43254 11.1422 3.36345C11.0609 3.29436 10.9617 3.24991 10.856 3.23533ZM10.6667 7.83333C10.7993 7.83333 10.9265 7.78065 11.0202 7.68689C11.114 7.59312 11.1667 7.46594 11.1667 7.33333C11.1667 7.20072 11.114 7.07355 11.0202 6.97978C10.9265 6.88601 10.7993 6.83333 10.6667 6.83333H5.33333C5.20073 6.83333 5.07355 6.88601 4.97978 6.97978C4.88601 7.07355 4.83333 7.20072 4.83333 7.33333C4.83333 7.46594 4.88601 7.59312 4.97978 7.68689C5.07355 7.78065 5.20073 7.83333 5.33333 7.83333H10.6667Z" fill="currentColor"/>
</svg>
