<svg width="24" height="24" viewBox="0 0 24 24" fill="none" xmlns="http://www.w3.org/2000/svg">
<path fill-rule="evenodd" clip-rule="evenodd" d="M11.999 1.5C11.5394 1.5 11.0842 1.59053 10.6596 1.76642C10.235 1.94231 9.84913 2.20012 9.52413 2.52513C9.19912 2.85013 8.94131 3.23597 8.76542 3.66061C8.58953 4.08525 8.499 4.54037 8.499 5C8.499 5.45963 8.58953 5.91475 8.76542 6.33939C8.94131 6.76403 9.19912 7.14987 9.52413 7.47487C9.84913 7.79988 10.235 8.05769 10.6596 8.23358C11.0842 8.40947 11.5394 8.5 11.999 8.5C12.9273 8.5 13.8175 8.13125 14.4739 7.47487C15.1303 6.8185 15.499 5.92826 15.499 5C15.499 4.07174 15.1303 3.1815 14.4739 2.52513C13.8175 1.86875 12.9273 1.5 11.999 1.5ZM18.682 10.825C18.2966 10.4396 17.8352 10.1387 17.3272 9.94146C16.8192 9.74418 16.2756 9.65483 15.7312 9.6791C15.1867 9.70337 14.6533 9.84072 14.1648 10.0824C13.6764 10.3241 13.2436 10.6649 12.894 11.083L11.999 11.978L11.043 11.022C10.6969 10.6251 10.2743 10.3019 9.80062 10.0717C9.32691 9.8416 8.81171 9.7092 8.28573 9.68243C7.75975 9.65566 7.23376 9.73507 6.73913 9.91593C6.2445 10.0968 5.79135 10.3754 5.40669 10.7351C5.02204 11.0949 4.71375 11.5284 4.50022 12.0098C4.28669 12.4912 4.17228 13.0107 4.16382 13.5373C4.15536 14.0639 4.25301 14.5868 4.45096 15.0749C4.64891 15.5629 4.9431 16.0061 5.316 16.378L5.326 16.388L6.458 17.519L11.473 22.535L11.996 23.065L17.54 17.519L18.671 16.389L18.673 16.387L18.681 16.379L18.682 16.377C19.4182 15.6407 19.8318 14.6422 19.8318 13.601C19.8318 12.5598 19.4182 11.5613 18.682 10.825Z" fill="currentColor"/>
</svg>
