<svg viewBox="0 0 16 16" fill="none" xmlns="http://www.w3.org/2000/svg" aria-hidden="true">
<path fill-rule="evenodd" clip-rule="evenodd" d="M14.6673 7.99992C14.6673 4.31792 11.6827 1.33325 8.00065 1.33325C4.31865 1.33325 1.33398 4.31792 1.33398 7.99992C1.33398 11.6819 4.31865 14.6666 8.00065 14.6666C11.6827 14.6666 14.6673 11.6819 14.6673 7.99992ZM8.00065 4.66659C8.17746 4.66659 8.34703 4.73682 8.47206 4.86185C8.59708 4.98687 8.66732 5.15644 8.66732 5.33325V8.66658C8.66732 8.8434 8.59708 9.01296 8.47206 9.13799C8.34703 9.26301 8.17746 9.33325 8.00065 9.33325C7.82384 9.33325 7.65427 9.26301 7.52925 9.13799C7.40422 9.01296 7.33398 8.8434 7.33398 8.66658V5.33325C7.33398 5.15644 7.40422 4.98687 7.52925 4.86185C7.65427 4.73682 7.82384 4.66659 8.00065 4.66659ZM7.33398 10.6666C7.33398 10.4898 7.40422 10.3202 7.52925 10.1952C7.65427 10.0702 7.82384 9.99992 8.00065 9.99992H8.00598C8.1828 9.99992 8.35236 10.0702 8.47739 10.1952C8.60241 10.3202 8.67265 10.4898 8.67265 10.6666C8.67265 10.8434 8.60241 11.013 8.47739 11.138C8.35236 11.263 8.1828 11.3333 8.00598 11.3333H8.00065C7.82384 11.3333 7.65427 11.263 7.52925 11.138C7.40422 11.013 7.33398 10.8434 7.33398 10.6666Z" fill="#D8DDCE"/>
</svg>
