<svg viewBox="0 0 91 40" fill="none" xmlns="http://www.w3.org/2000/svg" aria-hidden="true">
<circle cx="71" cy="20" r="17.5" fill="#D3FA99" stroke="#1C3A13" stroke-width="5"/>
<path d="M62.4583 21.1042C62.2222 21.1042 62.0244 21.0244 61.865 20.865C61.7056 20.7056 61.6256 20.5075 61.625 20.2708C61.6244 20.0342 61.7044 19.8364 61.865 19.6775C62.0256 19.5186 62.2233 19.4386 62.4583 19.4375H65.375C65.6111 19.4375 65.8092 19.5175 65.9692 19.6775C66.1292 19.8375 66.2089 20.0353 66.2083 20.2708C66.2078 20.5064 66.1278 20.7044 65.9683 20.865C65.8089 21.0256 65.6111 21.1053 65.375 21.1042H62.4583ZM66.8333 26.6667C66.1389 26.6667 65.5486 26.4236 65.0625 25.9375C64.5764 25.4514 64.3333 24.8611 64.3333 24.1667H63.2917C63.0139 24.1667 62.7917 24.0625 62.625 23.8542C62.4583 23.6458 62.4097 23.4097 62.4792 23.1458L62.6667 22.3542H65.2708C65.8542 22.3542 66.3472 22.1528 66.75 21.75C67.1528 21.3472 67.3542 20.8542 67.3542 20.2708C67.3542 20.0903 67.3333 19.9236 67.2917 19.7708C67.25 19.6181 67.1944 19.4653 67.125 19.3125H67.9167C68.5 19.3125 68.9931 19.1111 69.3958 18.7083C69.7986 18.3056 70 17.8125 70 17.2292C70 16.6458 69.7986 16.1528 69.3958 15.75C68.9931 15.3472 68.5 15.1458 67.9167 15.1458H64.75L64.875 14.6458C64.9583 14.2569 65.1494 13.9411 65.4483 13.6983C65.7472 13.4556 66.0978 13.3339 66.5 13.3333H74.9583C75.2361 13.3333 75.4583 13.4375 75.625 13.6458C75.7917 13.8542 75.8403 14.0903 75.7708 14.3542L75.2292 16.6667H76.8333C77.0972 16.6667 77.3472 16.7258 77.5833 16.8442C77.8194 16.9625 78.0139 17.1256 78.1667 17.3333L79.7292 19.3958C79.882 19.5903 79.9792 19.8022 80.0208 20.0317C80.0625 20.2611 80.0625 20.4936 80.0208 20.7292L79.4583 23.5C79.4167 23.6944 79.3194 23.8542 79.1667 23.9792C79.0139 24.1042 78.8403 24.1667 78.6458 24.1667H77.6667C77.6667 24.8611 77.4236 25.4514 76.9375 25.9375C76.4514 26.4236 75.8611 26.6667 75.1667 26.6667C74.4722 26.6667 73.8819 26.4236 73.3958 25.9375C72.9097 25.4514 72.6667 24.8611 72.6667 24.1667H69.3333C69.3333 24.8611 69.0903 25.4514 68.6042 25.9375C68.1181 26.4236 67.5278 26.6667 66.8333 26.6667ZM64.125 18.0625C63.8889 18.0625 63.6911 17.9825 63.5317 17.8225C63.3722 17.6625 63.2922 17.4647 63.2917 17.2292C63.2911 16.9936 63.3711 16.7958 63.5317 16.6358C63.6922 16.4758 63.89 16.3958 64.125 16.3958H67.875C68.1111 16.3958 68.3092 16.4758 68.4692 16.6358C68.6292 16.7958 68.7089 16.9936 68.7083 17.2292C68.7078 17.4647 68.6278 17.6628 68.4683 17.8233C68.3089 17.9839 68.1111 18.0636 67.875 18.0625H64.125ZM66.8333 25C67.0694 25 67.2675 24.92 67.4275 24.76C67.5875 24.6 67.6672 24.4022 67.6667 24.1667C67.6661 23.9311 67.5861 23.7333 67.4267 23.5733C67.2672 23.4133 67.0694 23.3333 66.8333 23.3333C66.5972 23.3333 66.3994 23.4133 66.24 23.5733C66.0806 23.7333 66.0006 23.9311 66 24.1667C65.9994 24.4022 66.0794 24.6003 66.24 24.7608C66.4006 24.9214 66.5983 25.0011 66.8333 25ZM75.1667 25C75.4028 25 75.6008 24.92 75.7608 24.76C75.9208 24.6 76.0006 24.4022 76 24.1667C75.9994 23.9311 75.9194 23.7333 75.76 23.5733C75.6006 23.4133 75.4028 23.3333 75.1667 23.3333C74.9306 23.3333 74.7328 23.4133 74.5733 23.5733C74.4139 23.7333 74.3339 23.9311 74.3333 24.1667C74.3328 24.4022 74.4128 24.6003 74.5733 24.7608C74.7339 24.9214 74.9317 25.0011 75.1667 25ZM74.2708 20.8333H78.2917L78.375 20.3958L76.8333 18.3333H74.8542L74.2708 20.8333Z" fill="#1C3A13"/>
<circle cx="20" cy="20" r="17.5" fill="#D3FA99" stroke="#1C3A13" stroke-width="5"/>
<path fill-rule="evenodd" clip-rule="evenodd" d="M18.8365 15.5761H15.8599C15.674 15.3303 15.5602 15.0376 15.531 14.7308C15.5037 14.4268 15.5785 14.2155 15.6961 14.0861C15.8041 13.9662 16.0712 13.7809 16.7183 13.7809C17.3084 13.7809 17.9151 14.1846 18.4304 14.897C18.5931 15.1226 18.7272 15.3553 18.8365 15.5761ZM13.756 14.8875C13.7782 15.121 13.8237 15.3505 13.8925 15.5761H13.1873C12.8724 15.5761 12.5704 15.7012 12.3478 15.9239C12.1251 16.1465 12 16.4485 12 16.7634V17.8106C12 18.1255 12.1251 18.4275 12.3478 18.6502C12.5704 18.8728 12.8724 18.9979 13.1873 18.9979H26.9647C27.2796 18.9979 27.5816 18.8728 27.8042 18.6502C28.0269 18.4275 28.152 18.1255 28.152 17.8106V16.7634C28.152 16.4485 28.0269 16.1465 27.8042 15.9239C27.5816 15.7012 27.2796 15.5761 26.9647 15.5761H26.2594C26.3291 15.3505 26.3746 15.121 26.396 14.8875C26.453 14.2321 26.3105 13.4841 25.7786 12.8928C25.2384 12.2956 24.4251 12.0012 23.4337 12.0012C22.0089 12.0012 20.9368 12.9415 20.2766 13.8581C20.2068 13.955 20.1399 14.054 20.076 14.1549C20.0117 14.054 19.9444 13.955 19.8741 13.8581C19.2164 12.9392 18.1431 12 16.7195 12C15.7269 12 14.9148 12.2944 14.3746 12.894C13.8415 13.4841 13.7002 14.2321 13.7572 14.8887L13.756 14.8875ZM21.3155 15.5761H24.2921C24.478 15.3303 24.5918 15.0376 24.621 14.7308C24.6483 14.4268 24.5735 14.2155 24.4559 14.0861C24.3479 13.9662 24.0807 13.7809 23.4337 13.7809C22.8436 13.7809 22.2369 14.1846 21.7216 14.897C21.5589 15.1226 21.4248 15.3553 21.3155 15.5761ZM13.1873 20.482H19.3339V28H14.3224C14.0075 28 13.7055 27.8749 13.4828 27.6522C13.2601 27.4296 13.1351 27.1276 13.1351 26.8127V20.482H13.1873ZM25.8296 28H20.818V20.482H27.0169V26.8127C27.0169 27.1276 26.8918 27.4296 26.6692 27.6522C26.4465 27.8749 26.1445 28 25.8296 28Z" fill="#1C3A13"/>
</svg>
