<svg width="24" height="24" viewBox="0 0 24 24" fill="none" xmlns="http://www.w3.org/2000/svg">
<path fill-rule="evenodd" clip-rule="evenodd" d="M8.658 5.37C8.675 7.174 8.9085 8.0585 9.367 8.531C9.77 8.946 10.449 9.147 11.724 9.1845C11.825 8.1665 12.231 7.3545 12.8275 6.776C13.514 6.11 14.4235 5.7825 15.323 5.7825C16.223 5.7825 17.1325 6.11 17.819 6.776C18.5115 7.4475 18.947 8.434 18.947 9.691V13.8575C18.947 15.0345 18.7515 16.2805 18.146 17.2475C17.5175 18.2505 16.478 18.9025 14.941 18.9025C13.3595 18.9025 12.2615 17.961 11.291 17.124L11.2605 17.097C10.2725 16.2445 9.3845 15.4785 8.1255 15.3045C7.596 15.3095 7.2285 15.4515 6.9645 15.645C6.69 15.846 6.4935 16.128 6.3545 16.4535C6.0695 17.12 6.06 17.8875 6.074 18.2175C6.0765 18.2825 6.078 18.9915 6.079 19.6575L6.08 20.5825V20.999L5.596 21H19.5C19.8978 21 20.2794 20.842 20.5607 20.5607C20.842 20.2794 21 19.8978 21 19.5V4.5C21 4.10218 20.842 3.72064 20.5607 3.43934C20.2794 3.15804 19.8978 3 19.5 3H8.657L8.658 5.335V5.37ZM4.5 21H5.08V20.5835L5.0755 18.3895L5.075 18.2915V18.2585V18.259C5.059 17.885 5.0605 16.9355 5.4345 16.061C5.6245 15.616 5.919 15.171 6.3735 14.8385C6.833 14.502 7.4225 14.304 8.157 14.304C8.3545 14.304 8.537 14.309 8.7105 14.313C9.0265 14.3205 9.3125 14.3275 9.604 14.3055C10.03 14.2735 10.364 14.182 10.6365 13.978C11.1495 13.593 11.637 12.6505 11.694 10.1845C10.37 10.1465 9.3375 9.9365 8.649 9.2275C7.8845 8.439 7.675 7.1655 7.658 5.3795L7.657 3H4.5C4.10218 3 3.72064 3.15804 3.43934 3.43934C3.15804 3.72064 3 4.10218 3 4.5V19.5C3 19.8978 3.15804 20.2794 3.43934 20.5607C3.72064 20.842 4.10218 21 4.5 21ZM12.515 12.233C13.713 11.6545 14.635 12.123 15.505 12.5645C16.305 12.9705 17.061 13.3545 17.947 12.882V9.691C17.947 8.676 17.602 7.958 17.1225 7.4935C16.6375 7.0235 15.985 6.7825 15.3235 6.7825C14.6615 6.7825 14.0085 7.0235 13.5235 7.4935C13.045 7.9585 12.6995 8.676 12.6995 9.691C12.6995 10.6965 12.6375 11.536 12.515 12.233Z" fill="currentColor"/>
</svg>
