<svg viewBox="0 0 16 16" fill="none" xmlns="http://www.w3.org/2000/svg" aria-hidden="true">
<path fill-rule="evenodd" clip-rule="evenodd" d="M4 0C1.79086 0 0 1.79086 0 4V12C0 14.2091 1.79086 16 4 16H12C14.2091 16 16 14.2091 16 12V4C16 1.79086 14.2091 0 12 0H4ZM11.7705 5.20996C11.4722 4.92272 10.9973 4.93137 10.71 5.22949L6.94531 9.1377L5.31641 7.25879C5.0451 6.94594 4.57174 6.91237 4.25879 7.18359C3.94595 7.4549 3.91237 7.92826 4.18359 8.24121L6.34961 10.7412C6.48758 10.9004 6.68688 10.9945 6.89746 11C7.10784 11.0054 7.31102 10.9221 7.45703 10.7705L11.79 6.27051C12.0773 5.97222 12.0686 5.4973 11.7705 5.20996Z" fill="#1C3A13"/>
</svg>
