<svg width="16" height="16" viewBox="0 0 16 16" fill="none" xmlns="http://www.w3.org/2000/svg">
<path fill-rule="evenodd" clip-rule="evenodd" d="M3.73 3.3257L3.02534 5.58437C2.90757 5.78465 2.82969 6.00583 2.796 6.2357L2.728 6.6877C2.46398 8.44213 2.48875 10.2279 2.80134 11.9744C2.86302 12.3192 3.03551 12.6344 3.29263 12.8723C3.54975 13.1102 3.87745 13.2577 4.226 13.2924L5.046 13.3744C7.01134 13.569 8.99 13.569 10.9547 13.3744L11.7747 13.293C12.1234 13.2584 12.4514 13.1109 12.7086 12.8729C12.9659 12.6349 13.1384 12.3194 13.2 11.9744C13.5127 10.2277 13.5373 8.44237 13.2733 6.6877L13.2053 6.2357C13.1704 5.99654 13.0876 5.76686 12.962 5.56037L12.2707 3.32904C12.1831 3.04564 12.0166 2.79307 11.7906 2.60096C11.5646 2.40885 11.2885 2.28515 10.9947 2.24437C9.00801 1.96802 6.99266 1.96802 5.006 2.24437C4.7126 2.28489 4.4368 2.40809 4.21084 2.59958C3.98488 2.79107 3.8181 3.04292 3.73 3.3257ZM10.8567 3.23437C8.96141 2.96986 7.0386 2.96986 5.14334 3.23437C5.03776 3.2489 4.93852 3.29325 4.85728 3.36221C4.77603 3.43118 4.71615 3.52189 4.68467 3.6237L4.35067 4.69437C4.37556 4.69082 4.40067 4.68793 4.426 4.6857L5.078 4.62104C7.022 4.4277 8.97934 4.4277 10.9233 4.62104L11.5753 4.6857C11.5993 4.68793 11.6231 4.69059 11.6467 4.6937L11.3153 3.62437C11.284 3.52244 11.2241 3.43158 11.1429 3.36249C11.0616 3.2934 10.9623 3.24895 10.8567 3.23437ZM10.6673 7.83237C10.7999 7.83237 10.9271 7.77969 11.0209 7.68592C11.1147 7.59216 11.1673 7.46498 11.1673 7.33237C11.1673 7.19976 11.1147 7.07259 11.0209 6.97882C10.9271 6.88505 10.7999 6.83237 10.6673 6.83237H5.334C5.20139 6.83237 5.07422 6.88505 4.98045 6.97882C4.88668 7.07259 4.834 7.19976 4.834 7.33237C4.834 7.46498 4.88668 7.59216 4.98045 7.68592C5.07422 7.77969 5.20139 7.83237 5.334 7.83237H10.6673Z" fill="white"/>
</svg>
