<svg viewBox="0 0 16 16" fill="none" xmlns="http://www.w3.org/2000/svg" aria-hidden="true">
<path d="M7.99827 11.5166L5.2316 13.1833C5.10938 13.2611 4.9816 13.2944 4.84827 13.2833C4.71493 13.2722 4.59827 13.2277 4.49827 13.15C4.39827 13.0722 4.32049 12.9751 4.26493 12.8586C4.20938 12.7422 4.19827 12.6115 4.2316 12.4666L4.96493 9.31663L2.51493 7.19997C2.40382 7.09997 2.33449 6.98597 2.30693 6.85797C2.27938 6.72997 2.2876 6.60508 2.3316 6.4833C2.3756 6.36152 2.44227 6.26152 2.5316 6.1833C2.62093 6.10508 2.74315 6.05508 2.89827 6.0333L6.1316 5.74997L7.3816 2.7833C7.43716 2.64997 7.52338 2.54997 7.64027 2.4833C7.75716 2.41663 7.87649 2.3833 7.99827 2.3833C8.12004 2.3833 8.23938 2.41663 8.35627 2.4833C8.47316 2.54997 8.55938 2.64997 8.61493 2.7833L9.86493 5.74997L13.0983 6.0333C13.2538 6.05552 13.376 6.10552 13.4649 6.1833C13.5538 6.26108 13.6205 6.36108 13.6649 6.4833C13.7094 6.60552 13.7178 6.73063 13.6903 6.85863C13.6627 6.98663 13.5932 7.10041 13.4816 7.19997L11.0316 9.31663L11.7649 12.4666C11.7983 12.6111 11.7872 12.7417 11.7316 12.8586C11.676 12.9755 11.5983 13.0726 11.4983 13.15C11.3983 13.2273 11.2816 13.2717 11.1483 13.2833C11.0149 13.2949 10.8872 13.2615 10.7649 13.1833L7.99827 11.5166Z" fill="#FA6829"/>
</svg>
