<svg width="16" height="16" viewBox="0 0 16 16" fill="none" xmlns="http://www.w3.org/2000/svg">
<path d="M7.9987 1.33398C11.6807 1.33398 14.6654 4.31865 14.6654 8.00065C14.6654 11.6827 11.6807 14.6673 7.9987 14.6673C4.3167 14.6673 1.33203 11.6827 1.33203 8.00065C1.33203 4.31865 4.3167 1.33398 7.9987 1.33398ZM7.9987 4.00065C7.82189 4.00065 7.65232 4.07089 7.52729 4.19591C7.40227 4.32094 7.33203 4.49051 7.33203 4.66732V8.00065C7.33207 8.17745 7.40233 8.34699 7.52736 8.47198L9.52736 10.472C9.6531 10.5934 9.8215 10.6606 9.9963 10.6591C10.1711 10.6576 10.3383 10.5875 10.4619 10.4639C10.5855 10.3403 10.6556 10.173 10.6571 9.99825C10.6587 9.82345 10.5915 9.65505 10.47 9.52932L8.66536 7.72465V4.66732C8.66536 4.49051 8.59513 4.32094 8.4701 4.19591C8.34508 4.07089 8.17551 4.00065 7.9987 4.00065Z" fill="white"/>
</svg>
