<svg width="16" height="16" viewBox="0 0 16 16" fill="none" xmlns="http://www.w3.org/2000/svg">
<rect width="16" height="16" rx="8" fill="currentColor"/>
<path d="M2.99967 4.49977V5.99987H5.99987V7.24995H3.49971V8.75005H5.99987V10.0001H2.99967V11.5002H5.99987C6.82992 11.5002 7.49997 10.8302 7.49997 10.0001V9.05007C7.49997 8.77157 7.38934 8.50448 7.19241 8.30756C6.99548 8.11063 6.72839 8 6.4499 8C6.72839 8 6.99548 7.88937 7.19241 7.69244C7.38934 7.49552 7.49997 7.22843 7.49997 6.94993V5.99987C7.49997 5.16982 6.82992 4.49977 5.99987 4.49977H2.99967ZM11.5002 5.99987V10.0001H9.5001V5.99987H11.5002ZM11.5002 4.49977H9.5001C8.67004 4.49977 8 5.16982 8 5.99987V10.0001C8 10.8302 8.67004 11.5002 9.5001 11.5002H11.5002C12.3303 11.5002 13.0003 10.8302 13.0003 10.0001V5.99987C13.0003 5.16982 12.3303 4.49977 11.5002 4.49977Z" fill="var(--theme-primary, #1C3A13)"/>
</svg>
