<svg viewBox="0 0 24 24" fill="none" xmlns="http://www.w3.org/2000/svg" aria-hidden="true">
<path fill-rule="evenodd" clip-rule="evenodd" d="M8 3C7.73481 3.00006 7.48049 3.10545 7.293 3.293L3.293 7.293C3.11631 7.46908 3.01181 7.70483 3 7.954M3 8.008V18C3 18.7956 3.31607 19.5587 3.87868 20.1213C4.44129 20.6839 5.20435 21 6 21H18C18.7956 21 19.5587 20.6839 20.1213 20.1213C20.6839 19.5587 21 18.7956 21 18V8.008L20.999 7.954C20.9875 7.70497 20.8833 7.46923 20.707 7.293L16.707 3.293C16.5195 3.10545 16.2652 3.00006 16 3H8M17.586 7L15.586 5H8.414L6.414 7H17.586ZM7 12C7 11.7348 7.10536 11.4804 7.29289 11.2929C7.48043 11.1054 7.73478 11 8 11H12C12.2652 11 12.5196 11.1054 12.7071 11.2929C12.8946 11.4804 13 11.7348 13 12C13 12.2652 12.8946 12.5196 12.7071 12.7071C12.5196 12.8946 12.2652 13 12 13H8C7.73478 13 7.48043 12.8946 7.29289 12.7071C7.10536 12.5196 7 12.2652 7 12Z" fill="currentColor"/>
</svg>
