<svg width="24" height="24" viewBox="0 0 24 24" fill="none" xmlns="http://www.w3.org/2000/svg">
<path fill-rule="evenodd" clip-rule="evenodd" d="M10.8355 3.4C11.2681 3.13818 11.7641 2.99977 12.2697 2.99977C12.7754 2.99977 13.2714 3.13818 13.704 3.4L14.7225 4.023C16.1515 4.8965 17.779 5.091 19.414 5.287C19.9425 5.3505 20.4715 5.4135 20.995 5.5C20.995 5.5 21.0065 6.417 20.9945 6.833L20.89 10.4085C20.8 13.475 19.4365 16.3825 17.0975 18.4955C15.994 19.492 14.8525 20.3925 13.541 21.1405C13.1544 21.359 12.7211 21.4815 12.2774 21.4977C11.8337 21.514 11.3925 21.4236 10.991 21.234C9.4765 20.514 8.1355 19.601 6.911 18.4955C4.572 16.3825 3.2085 13.475 3.119 10.4085L3.015 6.8445C3.0025 6.4225 3.015 5.5 3.015 5.5C3.44 5.45 3.873 5.4085 4.3095 5.367C6.236 5.184 8.2265 4.995 9.8595 3.997L10.8355 3.4ZM11 11V7.5H13V11H16.5V13H13V16.5H11V13H7.5V11H11Z" fill="currentColor"/>
</svg>
