<svg viewBox="0 0 14 14" fill="none" xmlns="http://www.w3.org/2000/svg" aria-hidden="true">
<path d="M6.63833 11.9058C7.09333 12.3608 7.83417 12.3608 8.28917 11.9058L11.9117 8.28333C12.3667 7.82833 12.3667 7.0875 11.9117 6.6325L7.3675 2.08833C7.14591 1.87209 6.84878 1.75073 6.53917 1.75L2.91667 1.75C2.275 1.75 1.75 2.275 1.75 2.91667V6.53917C1.75 6.84833 1.8725 7.14583 2.09417 7.36167L6.63833 11.9058ZM4.22917 3.5C4.42255 3.5 4.60802 3.57682 4.74476 3.71357C4.88151 3.85031 4.95833 4.03578 4.95833 4.22917C4.95833 4.42255 4.88151 4.60802 4.74476 4.74477C4.60802 4.88151 4.42255 4.95833 4.22917 4.95833C4.03578 4.95833 3.85031 4.88151 3.71357 4.74477C3.57682 4.60802 3.5 4.42255 3.5 4.22917C3.5 4.03578 3.57682 3.85031 3.71357 3.71357C3.85031 3.57682 4.03578 3.5 4.22917 3.5Z" fill="currentColor"/>
</svg>
