<svg viewBox="0 0 24 24" fill="none" xmlns="http://www.w3.org/2000/svg" aria-hidden="true">
<path fill-rule="evenodd" clip-rule="evenodd" d="M7.5 4.875V6H4.125C3.82663 6 3.54048 6.11853 3.3295 6.3295C3.11853 6.54048 3 6.82663 3 7.125C3 7.42337 3.11853 7.70952 3.3295 7.9205C3.54048 8.13147 3.82663 8.25 4.125 8.25H4.575L5.7975 20.475C5.85327 21.0299 6.1131 21.5442 6.52661 21.9184C6.94012 22.2926 7.47784 22.4998 8.0355 22.5H15.9645C16.5222 22.4998 17.0599 22.2926 17.4734 21.9184C17.8869 21.5442 18.1467 21.0299 18.2025 20.475L19.425 8.25H19.875C20.1734 8.25 20.4595 8.13147 20.6705 7.9205C20.8815 7.70952 21 7.42337 21 7.125C21 6.82663 20.8815 6.54048 20.6705 6.3295C20.4595 6.11853 20.1734 6 19.875 6H16.5V4.875C16.5 3.97989 16.1444 3.12145 15.5115 2.48851C14.8785 1.85558 14.0201 1.5 13.125 1.5H10.875C9.97989 1.5 9.12145 1.85558 8.48851 2.48851C7.85558 3.12145 7.5 3.97989 7.5 4.875ZM10.875 3.75C10.5766 3.75 10.2905 3.86853 10.0795 4.0795C9.86853 4.29048 9.75 4.57663 9.75 4.875V6H14.25V4.875C14.25 4.57663 14.1315 4.29048 13.9205 4.0795C13.7095 3.86853 13.4234 3.75 13.125 3.75H10.875ZM9.075 9C9.22278 8.99253 9.37058 9.01428 9.50994 9.06402C9.6493 9.11375 9.77747 9.19049 9.88713 9.28984C9.99679 9.38919 10.0858 9.50919 10.149 9.64297C10.2122 9.77676 10.2484 9.9217 10.2555 10.0695L10.668 18.3195C10.679 18.6152 10.5731 18.9033 10.3732 19.1214C10.1733 19.3395 9.89553 19.4701 9.60003 19.4849C9.30454 19.4997 9.01511 19.3975 8.79443 19.2004C8.57375 19.0034 8.43959 18.7273 8.421 18.432L8.0085 10.182C8.00082 10.0343 8.02232 9.88661 8.07178 9.74727C8.12123 9.60792 8.19767 9.4797 8.29672 9.36992C8.39578 9.26014 8.5155 9.17096 8.64904 9.10749C8.78258 9.04402 8.92733 9.00749 9.075 9ZM14.925 9C15.0727 9.0073 15.2174 9.04364 15.3511 9.10693C15.4847 9.17023 15.6045 9.25924 15.7037 9.36888C15.8029 9.47851 15.8795 9.60663 15.9291 9.74589C15.9788 9.88516 16.0005 10.0328 15.993 10.1805L15.5805 18.4305C15.5619 18.7258 15.4278 19.0019 15.2071 19.1989C14.9864 19.396 14.697 19.4982 14.4015 19.4834C14.106 19.4686 13.8282 19.338 13.6283 19.1199C13.4284 18.9018 13.3225 18.6137 13.3335 18.318L13.746 10.068C13.7611 9.77031 13.8938 9.49079 14.1149 9.29083C14.3359 9.09087 14.6273 8.98531 14.925 9Z" fill="currentColor"/>
</svg>
