<svg width="169" height="32" viewBox="0 0 168.932 32" fill="none" xmlns="http://www.w3.org/2000/svg">
<g id="Converlis">
<path d="M161.612 10.6297C166.183 10.6297 168.261 12.3876 168.484 15.9995H164.649C164.393 14.2735 163.178 13.8899 161.516 13.8899C160.014 13.8899 158.831 14.4333 158.831 15.4881C158.831 16.6388 159.822 17.278 162.539 17.6936C166.95 18.3968 168.932 19.931 168.932 23.1593C168.932 26.5474 165.895 28.3054 161.964 28.3054C157.329 28.3054 154.9 26.6753 154.452 22.8397H158.288C158.64 24.5018 159.726 25.0452 162.06 25.0452C163.914 25.0452 165.032 24.4698 165.032 23.447C165.032 22.2004 163.85 21.4653 161.069 21.0178C156.85 20.3146 154.932 19.036 154.932 15.6799C154.932 12.7073 157.585 10.6297 161.612 10.6297Z" fill="currentColor"/>
<path d="M152.945 11.0772V27.858H149.077V11.0772H152.945ZM148.821 5.96305C148.821 4.74844 149.78 3.75758 150.995 3.75758C152.21 3.75758 153.2 4.74844 153.2 5.96305C153.2 7.17767 152.21 8.13657 150.995 8.13657C149.78 8.13657 148.821 7.17767 148.821 5.96305Z" fill="currentColor"/>
<path d="M145.48 22.9037C145.48 25.1092 145.8 25.3649 147.622 25.1731V27.922C147.014 28.0178 145.896 28.1137 145.192 28.1137C142.699 28.1137 141.772 27.1548 141.676 25.0133C141.612 24.2462 141.612 23.5749 141.612 22.3603V4.52472H145.48V22.9037Z" fill="currentColor"/>
<path d="M139.438 10.6297C139.982 10.6297 140.365 10.6297 140.717 10.7255V13.9538C136.817 13.5703 134.932 15.5201 134.932 20.5383V27.8579H131.064V11.0771H134.612L134.772 14.1456C135.059 11.7484 136.945 10.6297 139.438 10.6297Z" fill="currentColor"/>
<path d="M121.215 10.6297C126.648 10.6297 128.886 14.2735 128.886 19.1959C128.886 19.6433 128.854 20.2506 128.822 20.7621H117.123C117.411 23.8625 118.785 24.9812 121.215 24.9812C123.164 24.9812 124.315 24.2461 124.763 22.8716H128.598C127.959 26.3237 125.306 28.3054 121.087 28.3054C115.813 28.3054 113.096 25.3009 113.096 19.5474C113.096 13.9858 115.685 10.6297 121.215 10.6297ZM117.155 17.7255H124.89C124.603 15.0086 123.196 13.9538 121.055 13.9538C118.785 13.9538 117.443 14.9128 117.155 17.7255Z" fill="currentColor"/>
<path d="M113.553 11.0771L106.712 27.858H102.365L95.4932 11.0771H99.8722L104.667 24.342L109.429 11.0771H113.553Z" fill="currentColor"/>
<path d="M89.3508 10.6297C92.8348 10.6297 94.8804 12.0041 95.2959 15.1365C95.3918 15.9995 95.4238 16.7666 95.4238 18.1411V27.8579H91.5562V18.1411C91.5562 15.6479 90.9489 14.0178 88.0722 14.0178C85.8028 13.9219 84.1727 15.4881 84.1727 18.9721V27.8579H80.3051V11.0771H83.853L84.0129 13.7621C84.4923 11.3328 86.5699 10.6297 89.3508 10.6297Z" fill="currentColor"/>
<path d="M65.5851 19.4516C65.5851 23.5109 67.2153 24.9812 69.9641 24.9812C72.713 24.9812 74.3111 23.5109 74.3111 19.4516C74.3111 15.4561 72.713 13.9538 69.9641 13.9538C67.2153 13.9538 65.5851 15.4561 65.5851 19.4516ZM61.5577 19.4516C61.5577 13.6023 64.5623 10.6297 69.9641 10.6297C75.3659 10.6297 78.3705 13.6023 78.3705 19.4516C78.3705 25.3328 75.334 28.3054 69.9641 28.3054C64.5623 28.3054 61.5577 25.3328 61.5577 19.4516Z" fill="currentColor"/>
<path d="M50.3607 4.07722C56.6575 4.07722 59.726 7.2416 60.3653 11.7165H56.3379C55.7626 9.2553 53.7808 7.65712 50.3607 7.65712C46.0137 7.65712 43.4886 10.4699 43.4886 16.0635C43.4886 22.4562 46.4612 24.7256 50.4886 24.7256C53.8128 24.7256 55.7945 23.1914 56.3699 20.6662H60.3653C59.6621 25.5247 56.1461 28.3055 50.3927 28.3055C43.3608 28.3055 39.3973 24.2142 39.3973 16.2553C39.3973 9.19137 42.8813 4.07722 50.3607 4.07722Z" fill="currentColor"/>
</g>
<path d="M10.6676 26.667L5.33457 32L0.000583352 26.667L5.33457 21.334L10.6676 26.667ZM21.3346 16L26.6676 21.334L32.0016 26.667L26.6676 32L21.3346 26.667L16.0016 21.333L21.3346 16ZM16.0006 21.333L10.6676 26.667L5.33457 21.333L10.6676 16L16.0006 21.333ZM16.0006 10.667L10.6676 16L5.33457 10.667L10.6676 5.33301L16.0006 10.667ZM26.6686 10.667L21.3346 16L16.0016 10.667L10.6686 5.33301L16.0016 0L26.6686 10.667Z" fill="currentColor"/>
</svg>
